<?xml version="1.0" encoding="utf-8"?>
<!-- Generator: Adobe Illustrator 15.0.0, SVG Export Plug-In . SVG Version: 6.00 Build 0)  -->
<!DOCTYPE svg PUBLIC "-//W3C//DTD SVG 1.1//EN" "http://www.w3.org/Graphics/SVG/1.1/DTD/svg11.dtd">
<svg version="1.1" xmlns="http://www.w3.org/2000/svg" xmlns:xlink="http://www.w3.org/1999/xlink" x="0px" y="0px" width="163px"
	 height="87px" viewBox="0 0 163 87" enable-background="new 0 0 163 87" xml:space="preserve">
<g id="Camada_1">
	<text transform="matrix(1 0 0 1 63.2275 51.4463)" fill="#261F73" font-family="'MyriadPro-Bold'" font-size="34.8541">ANFIP</text>
</g>
<g id="Camada_2" display="none">
	
		<image display="inline" overflow="visible" width="192" height="192" xlink:href="Y:\LOGO ANFIP\logo_transp.png"  transform="matrix(0.2157 0 0 0.2157 174.1875 -25.813)">
	</image>
</g>
<g id="Camada_3">
	<circle fill="#261F73" cx="31.622" cy="42.508" r="6.443"/>
	<polygon fill="#261F73" points="31.622,18.025 40.025,26.401 40.025,32.628 31.622,23.904 5.666,49.917 5.666,44.224 	"/>
	<polygon fill="#261F73" points="31.622,26.562 40.025,34.938 40.025,41.165 31.622,32.441 5.666,58.453 5.666,52.761 	"/>
	<polygon fill="#261F73" points="31.249,67.393 22.846,59.017 22.846,52.789 31.249,61.514 57.206,35.501 57.206,41.194 	"/>
	<polygon fill="#261F73" points="31.249,58.856 22.846,50.48 22.846,44.253 31.249,52.978 57.206,26.965 57.206,32.658 	"/>
</g>
</svg>
